<svg width="43" height="37" viewBox="0 0 43 37" fill="none" xmlns="http://www.w3.org/2000/svg">
<g clip-path="url(#clip0_3_251)">
<path d="M21.5001 22.2067C23.6168 22.2067 25.3327 20.5472 25.3327 18.5001C25.3327 16.453 23.6168 14.7935 21.5001 14.7935C19.3834 14.7935 17.6675 16.453 17.6675 18.5001C17.6675 20.5472 19.3834 22.2067 21.5001 22.2067Z" fill="#DDDDDD"/>
<path d="M21.5 26.094C32.8579 26.094 42.0652 22.6941 42.0652 18.5C42.0652 14.306 32.8579 10.906 21.5 10.906C10.1422 10.906 0.934814 14.306 0.934814 18.5C0.934814 22.6941 10.1422 26.094 21.5 26.094Z" stroke="#DDDDDD"/>
<path d="M14.6998 22.297C20.3788 31.8098 28.027 37.8215 31.7826 35.7244C35.5383 33.6274 33.9791 24.2158 28.3002 14.703C22.6213 5.19017 14.973 -0.821507 11.2174 1.27552C7.46176 3.37255 9.0209 12.7842 14.6998 22.297Z" stroke="#DDDDDD"/>
<path d="M14.6998 14.703C9.02086 24.2158 7.46173 33.6274 11.2174 35.7244C14.973 37.8214 22.6212 31.8098 28.3002 22.297C33.9791 12.7842 35.5382 3.37253 31.7826 1.2755C28.0269 -0.821528 20.3787 5.19015 14.6998 14.703Z" stroke="#DDDDDD"/>
</g>
<defs>
<clipPath id="clip0_3_251">
<rect width="43" height="37" fill="white"/>
</clipPath>
</defs>
</svg>
