<svg width="50" height="37" viewBox="0 0 50 37" fill="none" xmlns="http://www.w3.org/2000/svg">
<g clip-path="url(#clip0_3_265)">
<path d="M43.0309 21.2661C41.4611 21.2673 39.9123 21.6234 38.5034 22.3069C38.0397 21.3923 37.5697 20.5884 37.4912 19.9901C37.3999 19.2917 37.2922 18.8754 37.3999 18.0436C37.5076 17.2119 37.9987 16.0341 37.9914 15.9457C37.9841 15.8574 37.8818 15.4339 36.8741 15.4267C35.8664 15.4195 35.0038 15.6177 34.9025 15.8773C34.7255 16.3573 34.5866 16.8502 34.4872 17.3515C34.311 18.2527 32.4745 21.4716 31.432 23.1549C31.0916 22.498 30.8013 21.9185 30.7411 21.4607C30.6498 20.7624 30.5421 20.346 30.6498 19.5143C30.7575 18.6825 31.2486 17.5047 31.2413 17.4164C31.234 17.3281 31.1317 16.9046 30.124 16.8974C29.1163 16.8901 28.2537 17.0884 28.1524 17.3479C28.0511 17.6075 27.9424 18.2247 27.7362 18.8186C27.5299 19.4124 25.0891 24.7806 24.4501 26.1719C24.1242 26.8811 23.8413 27.4506 23.6405 27.839C23.6405 27.839 23.6286 27.8652 23.6067 27.9084C23.436 28.24 23.3328 28.423 23.3328 28.423V28.4302C23.1968 28.6726 23.0517 28.8988 22.9796 28.8988C22.9294 28.8988 22.8281 28.2518 23.0015 27.3668C23.3666 25.5051 24.2374 22.6007 24.2283 22.5007C24.2237 22.4493 24.3908 21.9438 23.6587 21.6788C22.9476 21.422 22.6939 21.85 22.6291 21.8518C22.5643 21.8536 22.5196 22.0032 22.5196 22.0032C22.5196 22.0032 23.3119 18.7375 21.008 18.7375C19.5676 18.7375 17.5713 20.2929 16.5882 21.7032C15.9675 22.0375 14.6394 22.753 13.231 23.5172L11.6144 24.3958C11.5788 24.3561 11.5432 24.3174 11.5067 24.2786C8.71266 21.3364 3.54809 19.2547 3.76716 15.2987C3.84657 13.8569 4.35317 10.0721 13.691 5.47627C21.3402 1.7131 27.4641 2.74851 28.5221 5.04372C30.0336 8.32208 25.2497 14.4156 17.3057 15.2951C14.2789 15.6303 12.6851 14.4724 12.2853 14.0407C11.8682 13.5902 11.8061 13.5658 11.6464 13.6514C11.3926 13.7902 11.5551 14.1921 11.6464 14.43C11.8837 15.0392 12.8567 16.1197 14.5162 16.6577C15.9767 17.1308 19.5292 17.3903 23.8267 15.7493C28.6398 13.911 32.3978 8.79878 31.2942 4.52466C30.1715 0.17755 22.871 -1.25076 15.9593 1.17241C11.8518 2.61424 7.3955 4.87791 4.19526 7.83366C0.389828 11.3481 -0.217178 14.4066 0.0329265 15.6844C0.921073 20.2253 7.26132 23.1828 9.7998 25.3744L9.4502 25.5645C8.19876 26.1881 3.36096 28.6843 2.15243 31.3229C0.783241 34.3155 2.37059 36.4594 3.42303 36.7513C6.68353 37.6471 10.0289 36.0358 11.8271 33.3883C13.6253 30.7407 13.4017 27.2947 12.5802 25.7213C12.5701 25.7015 12.5583 25.6826 12.5482 25.6637C12.8768 25.4708 13.2118 25.2762 13.5441 25.0833C14.1922 24.7076 14.8275 24.3624 15.3797 24.0614C15.0712 24.8959 14.8448 25.8971 14.727 27.3434C14.5892 29.0421 15.2939 31.2372 16.2167 32.1014C16.6229 32.4817 17.1122 32.4907 17.4216 32.4907C18.495 32.4907 18.9852 31.6085 19.521 30.5659C20.1828 29.2863 20.7697 27.7976 20.7697 27.7976C20.7697 27.7976 20.0331 31.8203 22.0403 31.8203C22.7706 31.8203 23.5072 30.884 23.8349 30.4064V30.4145L23.8915 30.3244C23.9672 30.2099 24.0101 30.1369 24.0101 30.1369C24.0105 30.13 24.0105 30.1231 24.0101 30.1162C24.3041 29.6125 24.9567 28.4635 25.9343 26.5684C27.1976 24.12 28.4098 21.0534 28.4098 21.0534C28.528 21.726 28.689 22.3905 28.8917 23.0432C29.109 23.7731 29.5709 24.5751 29.9342 25.3528C29.6411 25.7538 29.4613 25.9836 29.4613 25.9836V25.9953C29.2277 26.3026 28.9648 26.6342 28.69 26.9568C27.6933 28.1283 26.5048 29.4683 26.346 29.8549C26.1634 30.3055 26.2027 30.6452 26.565 30.9146C26.8298 31.1111 27.3008 31.1417 27.7918 31.1093C28.4236 31.0754 29.0449 30.9358 29.6293 30.6966C30.1934 30.5002 30.7256 30.224 31.2093 29.8765C32.1878 29.1664 32.7775 28.1508 32.7209 26.8054C32.6899 26.0638 32.4471 25.3293 32.1468 24.6355C32.238 24.5093 32.3248 24.3822 32.4142 24.2534C33.4292 22.7568 34.3439 21.1963 35.1526 19.5819C35.2708 20.2544 35.4318 20.919 35.6345 21.5716C35.8171 22.2024 36.1904 22.8836 36.5218 23.5541C35.0713 24.7175 34.1722 26.0692 33.8601 26.9559C33.2832 28.596 33.735 29.3385 34.583 29.5079C34.9673 29.5845 35.5095 29.4106 35.9184 29.2376C36.5222 29.0392 37.0915 28.7501 37.6062 28.3806C38.5847 27.6705 39.523 26.6766 39.4683 25.3312C39.4275 24.7117 39.2848 24.103 39.0456 23.5289C40.2752 23.0233 41.8662 22.7422 43.8935 22.9756C48.242 23.4766 49.0964 26.1575 48.9321 27.2794C48.7678 28.4013 47.8568 29.0177 47.5519 29.2043C47.2471 29.3908 47.154 29.4548 47.1795 29.5936C47.217 29.7945 47.3575 29.7873 47.6177 29.744C47.9755 29.6846 49.8996 28.8312 49.9836 26.7604C50.1023 24.1299 47.5501 21.2427 43.0309 21.2661ZM9.51227 32.4259C8.07188 33.9767 6.05918 34.5634 5.19659 34.0695C4.26463 33.5361 4.6334 31.2526 6.40147 29.6062C7.47857 28.6032 8.86601 27.6786 9.79249 27.11L10.6852 26.5801L10.7829 26.5252L11.0065 26.3936C11.6473 28.7312 11.0284 30.7939 9.51227 32.4259ZM20.0094 25.3834C19.5073 26.591 18.4576 29.6792 17.8187 29.5143C17.271 29.3719 16.936 27.0235 17.7091 24.713C18.098 23.5496 18.9295 22.1591 19.4179 21.6202C20.2038 20.7515 21.07 20.4677 21.28 20.82C21.5447 21.2643 20.3206 24.6229 20.0057 25.3798L20.0094 25.3834ZM28.6809 29.4665C28.4682 29.5764 28.2729 29.6467 28.1825 29.5927C28.1159 29.553 28.2738 29.4124 28.2738 29.4124C28.2738 29.4124 29.3582 28.2608 29.7854 27.7363C30.0336 27.4308 30.3221 27.0695 30.6361 26.6639C30.6361 26.7045 30.6361 26.745 30.6361 26.7847C30.627 28.1571 29.2769 29.0916 28.6754 29.4629L28.6809 29.4665ZM35.3598 27.9643C35.201 27.8525 35.2274 27.4921 35.7486 26.3702C36.1108 25.6478 36.6157 25.0044 37.2337 24.4778C37.3271 24.7457 37.3776 25.0263 37.3834 25.3095C37.367 27.0424 36.1128 27.6912 35.3543 27.9607L35.3598 27.9643Z" fill="#DDDDDD"/>
</g>
<defs>
<clipPath id="clip0_3_265">
<rect width="50" height="37" fill="white"/>
</clipPath>
</defs>
</svg>
