<svg width="38" height="29" viewBox="0 0 38 29" fill="none" xmlns="http://www.w3.org/2000/svg">
<path d="M7.89257 0C5.72434 0 4.12025 1.81819 4.19202 3.7899C4.26082 5.68393 4.17139 8.13741 3.52658 10.1379C2.87984 12.1446 1.78645 13.413 0 13.576V15.424C1.78637 15.587 2.87984 16.8554 3.52658 18.8621C4.17139 20.8626 4.26082 23.3161 4.19195 25.2102C4.12025 27.1818 5.72434 29 7.89257 29H30.1102C32.2784 29 33.8825 27.1818 33.8108 25.2102C33.7419 23.3161 33.8314 20.8626 34.4761 18.8621C35.1229 16.8554 36.2136 15.587 38 15.424V13.576C36.2136 13.413 35.1229 12.1446 34.4761 10.1379C33.8314 8.13741 33.7419 5.68393 33.8108 3.7899C33.8825 1.81819 32.2784 0 30.1102 0H7.89257ZM25.4497 17.8479C25.4497 20.5629 23.3344 22.209 19.8241 22.209H13.352C13.3127 22.209 13.2749 22.194 13.2471 22.1673C13.2192 22.1407 13.2036 22.1045 13.2036 22.0668V6.92709C13.2036 6.88939 13.2192 6.85323 13.2471 6.82657C13.2749 6.79991 13.3127 6.78493 13.352 6.78493H19.7898C22.7169 6.78493 24.6379 8.30274 24.6379 10.633C24.6379 12.2684 23.3458 13.7327 21.6993 13.9892V14.0747C23.9404 14.3099 25.4497 15.7957 25.4497 17.8479ZM19.1723 8.74101H15.7649V13.3479H18.6348C20.8531 13.3479 22.0766 12.4928 22.0766 10.9643C22.0766 9.53197 21.0246 8.74101 19.1723 8.74101ZM15.7649 15.1757V20.2529H19.2981C21.6077 20.2529 22.8312 19.3657 22.8312 17.6983C22.8312 16.0308 21.5735 15.1757 19.1494 15.1757H15.7649V15.1757Z" fill="#DDDDDD"/>
</svg>
