<svg width="37" height="37" viewBox="0 0 37 37" fill="none" xmlns="http://www.w3.org/2000/svg">
<path d="M30.8334 19.7333V19.3222C30.8334 17.5058 29.3609 16.0333 27.5445 16.0333H24.6667C22.6233 16.0333 20.9667 17.6898 20.9667 19.7333C20.9667 21.7767 22.6233 23.4333 24.6667 23.4333H27.1334C29.1769 23.4333 30.8334 25.0898 30.8334 27.1333C30.8334 29.1767 29.1769 30.8333 27.1334 30.8333H24.6667C22.6233 30.8333 20.9667 29.1767 20.9667 27.1333M16.0334 14.7999V27.1333C16.0334 29.1767 14.3769 30.8333 12.3334 30.8333C10.2899 30.8333 8.6334 29.1767 8.6334 27.1333M1.2334 1.23328H35.7667V35.7666H1.2334V1.23328Z" stroke="#DDDDDD"/>
</svg>
