<svg width="38" height="37" viewBox="0 0 38 37" fill="none" xmlns="http://www.w3.org/2000/svg">
<path d="M19 2.46667V23.4333M19 23.4333V28.3667C19 31.0913 16.7316 33.3 13.9334 33.3C11.1351 33.3 8.8667 31.0913 8.8667 28.3667C8.8667 25.6421 11.1351 23.4333 13.9334 23.4333M19 23.4333H13.9334M13.9334 23.4333C11.1351 23.4333 8.8667 21.2246 8.8667 18.5C8.8667 15.7754 11.1351 13.5667 13.9334 13.5667M13.9334 13.5667H19M13.9334 13.5667H24.0667M13.9334 13.5667C11.1351 13.5667 8.8667 11.3579 8.8667 8.63334C8.8667 5.90874 11.1351 3.70001 13.9334 3.70001H24.0667C26.8649 3.70001 29.1334 5.90874 29.1334 8.63334C29.1334 11.3579 26.8649 13.5667 24.0667 13.5667M24.0667 13.5667C26.8649 13.5667 29.1334 15.7754 29.1334 18.5C29.1334 21.2246 26.8649 23.4333 24.0667 23.4333C21.2685 23.4333 19 21.2246 19 18.5C19 15.7754 21.2685 13.5667 24.0667 13.5667Z" stroke="#DDDDDD"/>
</svg>
