<svg width="61" height="37" viewBox="0 0 61 37" fill="none" xmlns="http://www.w3.org/2000/svg">
<g clip-path="url(#clip0_3_267)">
<path d="M30.1558 36.9987C29.953 36.9988 29.7538 36.9461 29.5781 36.8457L27.7386 35.7682C27.4628 35.6166 27.6007 35.562 27.6889 35.5306C27.9795 35.4408 28.2575 35.3151 28.5163 35.1564C28.5382 35.146 28.5625 35.1416 28.5867 35.1435C28.6109 35.1454 28.6342 35.1536 28.6542 35.1673L30.0662 35.9977C30.0925 36.0118 30.1218 36.0191 30.1517 36.0191C30.1816 36.0191 30.211 36.0118 30.2372 35.9977L35.746 32.8484C35.7717 32.8331 35.793 32.8115 35.8077 32.7856C35.8224 32.7598 35.8302 32.7306 35.8302 32.7009V26.4052C35.8302 26.375 35.8224 26.3453 35.8074 26.3189C35.7924 26.2926 35.7708 26.2706 35.7447 26.255L30.2386 23.1139C30.2128 23.0992 30.1835 23.0914 30.1538 23.0914C30.124 23.0914 30.0947 23.0992 30.069 23.1139L24.5629 26.255C24.5365 26.2704 24.5146 26.2924 24.4993 26.3187C24.4841 26.345 24.4761 26.3749 24.476 26.4052V32.7009C24.4759 32.7308 24.484 32.7601 24.4993 32.7858C24.5145 32.8115 24.5365 32.8326 24.5629 32.8471L26.0714 33.7102C26.8905 34.1199 27.3925 33.6378 27.3925 33.1639V26.9419C27.3924 26.9212 27.3966 26.9006 27.4047 26.8815C27.4127 26.8624 27.4245 26.845 27.4394 26.8304C27.4543 26.8158 27.4719 26.8042 27.4913 26.7964C27.5107 26.7886 27.5315 26.7847 27.5524 26.7849H28.2501C28.2711 26.7847 28.2919 26.7886 28.3113 26.7964C28.3307 26.8042 28.3483 26.8158 28.3632 26.8304C28.378 26.845 28.3899 26.8624 28.3979 26.8815C28.406 26.9006 28.4101 26.9212 28.4101 26.9419V33.1584C28.4101 34.2414 27.8158 34.8614 26.7788 34.8614C26.4603 34.8614 26.2107 34.8614 25.5102 34.52L24.0651 33.7006C23.8895 33.5989 23.7438 33.4536 23.6425 33.2789C23.5411 33.1043 23.4876 32.9065 23.4873 32.705V26.4093C23.4873 26.208 23.5407 26.0102 23.6421 25.8358C23.7435 25.6613 23.8893 25.5162 24.0651 25.4151L29.5712 22.2577C29.7488 22.1616 29.9479 22.1112 30.1503 22.1112C30.3527 22.1112 30.5519 22.1616 30.7295 22.2577L36.2383 25.411C36.414 25.5122 36.5598 25.6573 36.6611 25.8318C36.7625 26.0062 36.816 26.2039 36.8161 26.4052V32.7009C36.8156 32.9023 36.7621 33.1001 36.6608 33.2747C36.5594 33.4494 36.4138 33.5947 36.2383 33.6965L30.7295 36.8457C30.5549 36.9452 30.3572 36.998 30.1558 36.9987Z" fill="white"/>
<path d="M31.8506 32.6613C29.4402 32.6613 28.9356 31.5688 28.9356 30.647C28.9354 30.6263 28.9393 30.6058 28.9473 30.5866C28.9552 30.5675 28.9668 30.5501 28.9816 30.5355C28.9964 30.5209 29.0139 30.5093 29.0332 30.5015C29.0526 30.4937 29.0733 30.4897 29.0941 30.4899H29.807C29.8457 30.4896 29.8832 30.5033 29.9125 30.5284C29.9417 30.5536 29.9606 30.5885 29.9656 30.6265C30.0732 31.3448 30.3931 31.7081 31.8506 31.7081C33.0117 31.7081 33.5054 31.4472 33.5054 30.8381C33.5054 30.4858 33.3675 30.225 31.5624 30.0502C30.0553 29.9027 29.1231 29.5722 29.1231 28.3786C29.1231 27.2779 30.0594 26.621 31.63 26.621C33.395 26.621 34.2679 27.2273 34.3782 28.5329C34.3801 28.5547 34.3775 28.5766 34.3703 28.5973C34.3632 28.618 34.3518 28.637 34.3369 28.6531C34.3218 28.669 34.3037 28.6816 34.2835 28.6903C34.2634 28.699 34.2416 28.7035 34.2196 28.7036H33.5054C33.4693 28.7035 33.4344 28.6913 33.4064 28.669C33.3783 28.6466 33.3587 28.6155 33.3509 28.5807C33.1785 27.8255 32.7621 27.5838 31.63 27.5838C30.3628 27.5838 30.2152 28.0208 30.2152 28.3485C30.2152 28.7446 30.389 28.8607 32.1002 29.0846C33.8115 29.3086 34.5975 29.62 34.5975 30.7985C34.5975 31.9771 33.6033 32.6613 31.8506 32.6613Z" fill="white"/>
<path d="M39.7947 26.0583C39.7947 26.2663 39.7324 26.4696 39.6158 26.6425C39.4991 26.8154 39.3333 26.9502 39.1393 27.0298C38.9452 27.1094 38.7318 27.1302 38.5258 27.0896C38.3198 27.0491 38.1306 26.9489 37.9821 26.8019C37.8336 26.6548 37.7325 26.4674 37.6915 26.2634C37.6506 26.0594 37.6716 25.848 37.752 25.6559C37.8323 25.4637 37.9684 25.2995 38.143 25.1839C38.3176 25.0684 38.5229 25.0067 38.7329 25.0067C39.0143 25.0074 39.284 25.1185 39.4829 25.3155C39.6819 25.5126 39.794 25.7796 39.7947 26.0583V26.0583ZM37.8421 26.0583C37.8416 26.233 37.8934 26.4039 37.9911 26.5494C38.0888 26.6949 38.2279 26.8084 38.3908 26.8756C38.5536 26.9427 38.733 26.9604 38.906 26.9264C39.0791 26.8925 39.2381 26.8084 39.3628 26.6848C39.4876 26.5613 39.5725 26.4038 39.6067 26.2325C39.641 26.0611 39.6231 25.8835 39.5554 25.7221C39.4876 25.5608 39.373 25.4231 39.2261 25.3263C39.0792 25.2296 38.9066 25.1782 38.7302 25.1788C38.4953 25.1795 38.2703 25.272 38.104 25.4362C37.9377 25.6004 37.8436 25.823 37.8421 26.0555V26.0583ZM38.3344 25.471H38.7481C38.886 25.471 39.1618 25.471 39.1618 25.7824C39.167 25.8496 39.1469 25.9164 39.1054 25.9699C39.0639 26.0233 39.004 26.0597 38.937 26.0719C39.0997 26.0829 39.1108 26.1894 39.1328 26.3451C39.139 26.4512 39.1599 26.556 39.1949 26.6564H38.9425C38.9425 26.6005 38.897 26.3 38.897 26.2836C38.8805 26.2167 38.857 26.1839 38.7729 26.1839H38.5675V26.6564H38.3372L38.3344 25.471ZM38.5592 25.9886H38.744C38.7673 25.9917 38.7911 25.9896 38.8136 25.9825C38.8361 25.9754 38.8567 25.9634 38.874 25.9475C38.8912 25.9316 38.9047 25.9121 38.9135 25.8904C38.9222 25.8687 38.926 25.8453 38.9246 25.822C38.9246 25.6609 38.8115 25.6609 38.7495 25.6609H38.5592V25.9886Z" fill="white"/>
<path fill-rule="evenodd" clip-rule="evenodd" d="M13.0902 12.3661C13.0908 12.243 13.0584 12.1219 12.9964 12.0152C12.9344 11.9084 12.845 11.8198 12.7372 11.7584L6.89744 8.43027C6.79943 8.3742 6.68922 8.34235 6.57615 8.3374H6.51547C6.40199 8.34251 6.29137 8.37434 6.1928 8.43027L0.353009 11.7584C0.245546 11.8202 0.156366 11.9088 0.0944087 12.0155C0.0324515 12.1221 -0.000106506 12.2431 2.61749e-07 12.3661L0.0124112 21.329C0.0118688 21.3903 0.02796 21.4507 0.0590063 21.5038C0.0900526 21.5569 0.134916 21.6007 0.188915 21.6308C0.241773 21.6624 0.302321 21.679 0.364039 21.679C0.425758 21.679 0.486307 21.6624 0.539165 21.6308L4.00995 19.6629C4.11693 19.6009 4.20575 19.5124 4.26766 19.4061C4.32956 19.2997 4.36241 19.1793 4.36296 19.0565V14.868C4.36288 14.7457 4.39533 14.6255 4.45706 14.5195C4.51879 14.4136 4.60761 14.3256 4.71458 14.2644L6.1928 13.4204C6.30057 13.359 6.42285 13.3269 6.54719 13.3275C6.67022 13.327 6.79115 13.3591 6.89744 13.4204L8.37566 14.2644C8.48264 14.3256 8.57145 14.4136 8.63318 14.5195C8.69491 14.6255 8.72737 14.7457 8.72729 14.868V19.0565C8.72798 19.1794 8.76103 19.3 8.82319 19.4063C8.88534 19.5126 8.97444 19.6011 9.08168 19.6629L12.5511 21.6308C12.6045 21.6623 12.6654 21.6789 12.7276 21.6789C12.7897 21.6789 12.8507 21.6623 12.9041 21.6308C12.9574 21.6 13.0015 21.556 13.0323 21.503C13.063 21.4501 13.0792 21.3901 13.0792 21.329L13.0902 12.3661Z" fill="white"/>
<path fill-rule="evenodd" clip-rule="evenodd" d="M41.1875 0.0437506C41.1338 0.0143358 41.0734 -0.00073263 41.0121 2.73904e-05C40.9508 0.000787411 40.8907 0.0173497 40.8378 0.0480849C40.785 0.0788202 40.7411 0.122669 40.7105 0.17531C40.6799 0.227951 40.6637 0.28757 40.6635 0.348296V9.22513C40.6632 9.26825 40.6517 9.31057 40.6299 9.34792C40.6082 9.38527 40.577 9.41637 40.5394 9.43817C40.5019 9.45963 40.4593 9.47092 40.416 9.47092C40.3726 9.47092 40.3301 9.45963 40.2926 9.43817L38.835 8.60102C38.728 8.53963 38.6064 8.50731 38.4827 8.50731C38.359 8.50731 38.2375 8.53963 38.1304 8.60102L32.2878 11.9401C32.1803 12.0011 32.091 12.0892 32.029 12.1954C31.967 12.3017 31.9345 12.4223 31.9348 12.5451V19.2259C31.9349 19.3485 31.9676 19.469 32.0295 19.5752C32.0915 19.6814 32.1806 19.7696 32.2878 19.8309L38.1304 23.1727C38.2375 23.2338 38.359 23.266 38.4827 23.266C38.6064 23.266 38.7279 23.2338 38.835 23.1727L44.679 19.8309C44.786 19.7694 44.8749 19.6811 44.9369 19.575C44.9988 19.4688 45.0316 19.3485 45.032 19.2259V2.5757C45.032 2.45115 44.9984 2.32886 44.9346 2.22152C44.8709 2.11417 44.7793 2.02569 44.6693 1.96524L41.1875 0.0437506ZM40.6456 17.0326C40.6457 17.0634 40.6377 17.0936 40.6222 17.1203C40.6067 17.1469 40.5843 17.169 40.5573 17.1842L38.551 18.33C38.524 18.3449 38.4936 18.3526 38.4627 18.3526C38.4318 18.3526 38.4015 18.3449 38.3745 18.33L36.3695 17.1842C36.3425 17.169 36.3201 17.1469 36.3046 17.1203C36.2891 17.0936 36.2811 17.0634 36.2812 17.0326V14.7383C36.2813 14.708 36.2893 14.6782 36.3046 14.6518C36.3198 14.6255 36.3417 14.6035 36.3681 14.5881L38.3745 13.4396C38.4012 13.4241 38.4317 13.4159 38.4627 13.4159C38.4937 13.4159 38.5242 13.4241 38.551 13.4396L40.5573 14.5881C40.5841 14.6032 40.6063 14.6251 40.6218 14.6515C40.6373 14.6778 40.6455 14.7078 40.6456 14.7383V17.0326Z" fill="white"/>
<path fill-rule="evenodd" clip-rule="evenodd" d="M60.6484 14.6782C60.7554 14.617 60.8442 14.529 60.9059 14.4231C60.9676 14.3171 61.0001 14.1969 61 14.0746V12.4563C61.0001 12.3337 60.9676 12.2134 60.9059 12.1072C60.8442 12.001 60.7554 11.9128 60.6484 11.8513L54.8389 8.51357C54.7313 8.45222 54.6094 8.41992 54.4852 8.41992C54.3611 8.41992 54.2391 8.45222 54.1315 8.51357L48.2917 11.854C48.1842 11.915 48.0949 12.0031 48.0329 12.1094C47.9709 12.2156 47.9384 12.3363 47.9387 12.459V19.1371C47.9389 19.2602 47.9718 19.3812 48.0343 19.4876C48.0968 19.5941 48.1865 19.6824 48.2945 19.7435L54.0998 23.0211C54.2052 23.0793 54.3239 23.1099 54.4446 23.1099C54.5652 23.1099 54.6839 23.0793 54.7893 23.0211L58.3001 21.0886C58.3546 21.0582 58.3999 21.014 58.4315 20.9604C58.4631 20.9069 58.4797 20.8461 58.4797 20.7841C58.4797 20.7221 58.4631 20.6613 58.4315 20.6077C58.3999 20.5542 58.3546 20.51 58.3001 20.4795L52.423 17.1391C52.3691 17.1085 52.3243 17.0643 52.2931 17.0111C52.2619 16.9579 52.2454 16.8975 52.2451 16.8359V14.7465C52.2452 14.6852 52.2615 14.6251 52.2925 14.5721C52.3235 14.5191 52.368 14.4752 52.4217 14.4447L54.2515 13.3999C54.3049 13.3691 54.3655 13.3528 54.4273 13.3528C54.4891 13.3528 54.5498 13.3691 54.6031 13.3999L56.4344 14.4447C56.488 14.4752 56.5325 14.5191 56.5635 14.5721C56.5945 14.6251 56.6108 14.6852 56.6109 14.7465V16.3853C56.6106 16.4467 56.6268 16.5072 56.6577 16.5604C56.6887 16.6137 56.7333 16.6579 56.7871 16.6885C56.8409 16.7192 56.9019 16.7352 56.9639 16.7349C57.026 16.7347 57.0869 16.7182 57.1404 16.6871L60.6484 14.6782Z" fill="white"/>
<path fill-rule="evenodd" clip-rule="evenodd" d="M54.4031 14.3655C54.4241 14.3535 54.4478 14.3472 54.472 14.3472C54.4962 14.3472 54.52 14.3535 54.541 14.3655L55.6662 15.006C55.687 15.0179 55.7044 15.035 55.7165 15.0556C55.7286 15.0762 55.735 15.0996 55.7351 15.1234V16.4044C55.7348 16.428 55.7282 16.4511 55.7161 16.4714C55.704 16.4918 55.6868 16.5087 55.6662 16.5205L54.5451 17.1624C54.5242 17.1743 54.5004 17.1806 54.4762 17.1806C54.452 17.1806 54.4282 17.1743 54.4072 17.1624L53.2875 16.5205C53.2672 16.5085 53.2502 16.4915 53.2384 16.4712C53.2266 16.4509 53.2202 16.4279 53.22 16.4044V15.1234C53.22 15.0997 53.2262 15.0764 53.2381 15.0558C53.2499 15.0352 53.267 15.018 53.2875 15.006L54.4031 14.3655Z" fill="white"/>
<path fill-rule="evenodd" clip-rule="evenodd" d="M22.1249 8.58316C22.2309 8.52144 22.3516 8.48889 22.4745 8.48889C22.5974 8.48889 22.7181 8.52144 22.8241 8.58316L28.6156 11.8949C28.7221 11.9558 28.8105 12.0434 28.872 12.1489C28.9335 12.2543 28.9659 12.374 28.9658 12.4958V19.1261C28.9656 19.2477 28.9331 19.367 28.8717 19.4723C28.8102 19.5775 28.7219 19.6649 28.6156 19.7256L22.8241 23.0415C22.7174 23.1018 22.5967 23.1336 22.4738 23.1336C22.351 23.1336 22.2302 23.1018 22.1236 23.0415L16.332 19.7256C16.2259 19.6648 16.1378 19.5774 16.0765 19.4721C16.0153 19.3669 15.9831 19.2476 15.9832 19.1261V12.4958C15.9829 12.3739 16.0151 12.2542 16.0766 12.1487C16.1381 12.0431 16.2267 11.9556 16.3334 11.8949L22.1249 8.58316Z" fill="url(#paint0_linear_3_267)"/>
<path opacity="0.66" d="M28.5907 11.895L22.8212 8.58324C22.7639 8.55065 22.7021 8.52628 22.6379 8.51086L16.1155 19.5605C16.1709 19.6265 16.2377 19.6825 16.3127 19.7257L22.1166 23.0416C22.2003 23.0896 22.2933 23.1197 22.3895 23.1298C22.4858 23.1399 22.583 23.1298 22.6751 23.1003L28.7672 12.0493C28.7192 11.9869 28.6592 11.9345 28.5907 11.895V11.895Z" fill="#4B4B4B"/>
<path d="M22.8104 23.0415L28.5923 19.7257C28.6952 19.6634 28.7794 19.5749 28.8362 19.4695C28.8929 19.3641 28.9201 19.2455 28.915 19.1262V19.1002L22.6601 8.51632C22.5698 8.49151 22.4754 8.48464 22.3824 8.49613C22.2894 8.50761 22.1996 8.53722 22.1182 8.58324L16.3818 11.8608L22.6215 23.118C22.6877 23.1011 22.7512 23.0754 22.8104 23.0415V23.0415Z" fill="url(#paint1_linear_3_267)"/>
</g>
<defs>
<linearGradient id="paint0_linear_3_267" x1="15.9804" y1="15.8116" x2="28.97" y2="15.8116" gradientUnits="userSpaceOnUse">
<stop offset="0.01" stop-color="white"/>
<stop offset="0.19" stop-color="#E8E8E8"/>
<stop offset="0.54" stop-color="#C3C3C3"/>
<stop offset="0.82" stop-color="#ABABAB"/>
<stop offset="1" stop-color="#A3A3A3"/>
</linearGradient>
<linearGradient id="paint1_linear_3_267" x1="15.8909" y1="15.8022" x2="29.2901" y2="15.8022" gradientUnits="userSpaceOnUse">
<stop stop-color="#A3A3A3"/>
<stop offset="0.18" stop-color="#ABABAB"/>
<stop offset="0.46" stop-color="#C3C3C3"/>
<stop offset="0.81" stop-color="#E8E8E8"/>
<stop offset="0.99" stop-color="white"/>
</linearGradient>
<clipPath id="clip0_3_267">
<rect width="61" height="37" fill="white"/>
</clipPath>
</defs>
</svg>
